<svg xmlns="http://www.w3.org/2000/svg" width="15" height="14" viewBox="0 0 15 14">
  <defs>
    <style>
      .cls-1 {
        fill: #fff;
      }
    </style>
  </defs>
  <g id="nb" transform="translate(-98.182 -18.171)">
    <g id="组_93" data-name="组 93">
      <path id="路径_81" data-name="路径 81" class="cls-1" d="M101.275,31.568s1.023-6.146,5.089-8.257c4.545-2.36,5.268.176,5.09,3.5-.115,2.133-2.3,5.365-2.3,5.365l3.829-.657s.993-6.447-1.5-8.879c-5.531-5.4-12.673,8.594-12.673,8.594Z"/>
      <path id="路径_82" data-name="路径 82" class="cls-1" d="M112.987,31.514l-3.829.657s-3.034-4.543-4.042-5.746-4.886-5.915-4.886-5.915l.765-2.339s5.553,5.08,7.05,6.976C108.606,25.859,112.987,31.514,112.987,31.514Z"/>
      <g id="组_91" data-name="组 91">
        <rect id="矩形_7" data-name="矩形 7" class="cls-1" width="1.626" height="0.628" transform="matrix(0.058, -0.998, 0.998, 0.058, 101.263, 25.564)"/>
        <rect id="矩形_8" data-name="矩形 8" class="cls-1" width="0.629" height="1.623" transform="matrix(0.058, -0.998, 0.998, 0.058, 100.796, 25.037)"/>
      </g>
      <g id="组_92" data-name="组 92">
        <path id="路径_83" data-name="路径 83" class="cls-1" d="M110.447,24.679a.4.4,0,1,1,.39-.406A.4.4,0,0,1,110.447,24.679Z"/>
        <path id="路径_84" data-name="路径 84" class="cls-1" d="M110.467,25.728a.4.4,0,1,1,.391-.406A.4.4,0,0,1,110.467,25.728Z"/>
        <path id="路径_85" data-name="路径 85" class="cls-1" d="M109.4,24.7a.4.4,0,1,1,.391-.406A.4.4,0,0,1,109.4,24.7Z"/>
        <path id="路径_86" data-name="路径 86" class="cls-1" d="M109.42,25.748a.4.4,0,1,1,.39-.407A.4.4,0,0,1,109.42,25.748Z"/>
      </g>
      <path id="路径_87" data-name="路径 87" class="cls-1" d="M101.919,31.656s-.847-2.513-1.357-4.873c-.672-3.109.229-7.989.229-7.989a65.4,65.4,0,0,0-2.007,6.993c-.336,2.1-.6,5.354-.6,5.354Z"/>
    </g>
  </g>
</svg>
