<svg xmlns="http://www.w3.org/2000/svg" xmlns:xlink="http://www.w3.org/1999/xlink" width="95.292" height="100.225" viewBox="0 0 95.292 100.225">
  <defs>
    <style>
      .cls-1 {
        fill: none;
      }

      .cls-2 {
        fill: #ebecf0;
      }

      .cls-3 {
        fill: #c1c7d0;
      }

      .cls-4 {
        clip-path: url(#clip-path);
      }

      .cls-5 {
        fill: #ef6f59;
      }

      .cls-6 {
        fill: #d8462a;
      }

      .cls-7 {
        fill: #fff;
        font-size: 21px;
        font-family: MicrosoftYaHei-Bold, Microsoft YaHei;
        font-weight: 700;
        letter-spacing: 0.02em;
      }
    </style>
    <clipPath id="clip-path">
      <rect id="矩形_342" data-name="矩形 342" class="cls-1" width="95.292" height="100.225"/>
    </clipPath>
  </defs>
  <g id="NSS" transform="translate(176 295)">
    <path id="路径_691" data-name="路径 691" class="cls-2" d="M-24.783-203.94a4.716,4.716,0,0,1-1.4,3.366,4.777,4.777,0,0,1-3.366,1.4H-96.234a4.714,4.714,0,0,1-3.366-1.4,4.776,4.776,0,0,1-1.4-3.366v-85.736a4.715,4.715,0,0,1,1.4-3.366,4.775,4.775,0,0,1,3.366-1.4h40.911a4.759,4.759,0,0,1,3.386,1.379l25.774,25.773a4.761,4.761,0,0,1,1.379,3.386Zm0,0" transform="translate(-65.495 -0.487)"/>
    <path id="路径_692" data-name="路径 692" class="cls-3" d="M-24.783,419.641v4.765a4.718,4.718,0,0,1-1.4,3.367,4.777,4.777,0,0,1-3.366,1.4H-96.234A4.766,4.766,0,0,1-101,424.406v-4.765a4.715,4.715,0,0,0,1.4,3.366,4.776,4.776,0,0,0,3.366,1.4h66.685a4.716,4.716,0,0,0,3.366-1.4,4.758,4.758,0,0,0,1.4-3.366Zm0,0" transform="translate(-65.495 -624.068)"/>
    <g id="组_818" data-name="组 818" transform="translate(-176 -295)">
      <g id="组_817" data-name="组 817" class="cls-4" transform="translate(0 0)">
        <path id="路径_693" data-name="路径 693" class="cls-5" d="M-175.96,118.68H-80.7V142.5a4.756,4.756,0,0,1-1.4,3.366,4.776,4.776,0,0,1-3.366,1.4h-85.726a4.716,4.716,0,0,1-3.367-1.4,4.776,4.776,0,0,1-1.4-3.366Zm0,0" transform="translate(175.965 -66.251)"/>
        <path id="路径_694" data-name="路径 694" class="cls-6" d="M-166.589,53.332V43.8l-9.531,9.531Zm76.206,0,.091-9.531,9.48,9.531Zm0,0" transform="translate(176.105 -0.862)"/>
      </g>
    </g>
    <path id="路径_695" data-name="路径 695" class="cls-3" d="M289.939-263.9v.669H264.166A4.766,4.766,0,0,1,259.4-268v-26.443a4.759,4.759,0,0,1,3.386,1.379L288.6-267.3a4.825,4.825,0,0,1,1.338,3.4Zm0,0" transform="translate(-380.218 -0.487)"/>
    <text id="NSS-2" data-name="NSS" class="cls-7" transform="translate(-150 -219.575)"><tspan x="0" y="0">NSS</tspan></text>
  </g>
</svg>
