<svg xmlns="http://www.w3.org/2000/svg" width="12" height="12" viewBox="0 0 10.055 10.611">
  <defs>
    <style>
      .cls-1 {
        fill: #afb1b3;
      }
    </style>
  </defs>
  <g id="Refresh_Nibiru_Studio_Apps_Licenser" data-name="Refresh Nibiru Studio Apps Licenser" transform="translate(165 284)">
    <g id="组_812" data-name="组 812" transform="translate(-165 -284)">
      <path id="路径_685" data-name="路径 685" class="cls-1" d="M-162.485-283.048l-.55-.952h3.456l-1.728,2.993-.55-.952h0a3.77,3.77,0,0,0-1.38,5.15,3.759,3.759,0,0,0,2.381,1.78l-.648,1.122a5.008,5.008,0,0,1-2.821-2.274,5.027,5.027,0,0,1,1.84-6.866Zm4.4,7.618a3.77,3.77,0,0,0,1.38-5.15,3.76,3.76,0,0,0-2.39-1.782l.648-1.123a5.008,5.008,0,0,1,2.83,2.277,5.027,5.027,0,0,1-1.84,6.867l.55.952h-3.456l1.728-2.992Zm0,0" transform="translate(165 284)"/>
    </g>
  </g>
</svg>
