<svg id="vr" xmlns="http://www.w3.org/2000/svg" width="28" height="16.539" viewBox="0 0 28 16.539">
  <defs>
    <style>
      .cls-1 {
        fill: #fff;
      }
    </style>
  </defs>
  <path id="路径_671" data-name="路径 671" class="cls-1" d="M-186.867-142H-207.18a3.837,3.837,0,0,0-3.82,3.82v8.9a3.838,3.838,0,0,0,3.82,3.82h7.641a.606.606,0,0,0,.559-.373l2-3.913,1.957,3.913a.605.605,0,0,0,.559.373h7.641a3.838,3.838,0,0,0,3.82-3.82v-8.9a3.909,3.909,0,0,0-3.867-3.82Zm-16.493,10.809a2.555,2.555,0,0,1-2.562-2.562,2.526,2.526,0,0,1,2.562-2.562,2.526,2.526,0,0,1,2.562,2.562,2.555,2.555,0,0,1-2.562,2.562Zm12.672,0a2.555,2.555,0,0,1-2.562-2.562,2.526,2.526,0,0,1,2.562-2.562,2.526,2.526,0,0,1,2.562,2.562,2.555,2.555,0,0,1-2.562,2.562Zm0,0" transform="translate(211 142)"/>
</svg>
